<svg xmlns="http://www.w3.org/2000/svg" width="88" height="43" viewBox="0 0 88 43">
    <g fill="none" fill-rule="evenodd">
        <path fill="#FBED1F" d="M31.24 16.405c-.807.869-2.544.682-3.474-.93-.993-1.675-.683-3.536.31-4.59.993-1.055 2.792-.31 3.598 1.364.806 1.613.372 3.288-.434 4.156"/>
        <path fill="#FFF" d="M20.695 16.405c.682-.682 1.054-.558 1.178.248.187 1.303-.558 2.916-2.543 5.397-3.102 3.908-8.747 9.863-14.702 19.293-.31.496-.62.93-1.24.62C.968 40.784.1 39.543.286 36.256c.248-4.343 1.923-13.213 4.032-19.665.248-.682.744-.93 1.24-.496 2.048 1.737 2.358 4.032 1.49 7.816-1.117 4.777-2.358 8.25-3.226 15.012 4.404-7.258 12.655-18.176 16.873-22.518M21.563 42.338c-4.715 0-5.894-3.97-4.157-9.057 1.551-4.528 5.645-11.848 7.94-15.074.559-.744.993-.93 1.49-.372.93.993 1.426 3.66-.063 6.762-1.302 2.73-3.908 6.947-5.21 10.05-1.49 3.597-1.986 7.815 0 7.691M38.296 21.92c-2.791 2.916-5.769 8.065-8.064 12.841.124 1.8.93 3.784 2.605 4.156 2.172.497 5.025-1.364 8.623-8.56 3.536-7.01 2.792-10.794 1.365-10.918-1.303-.124-2.668.558-4.529 2.481m-2.791 19.913c-3.288 0-5.397-1.675-6.514-4.404-.558 1.302-1.24 2.791-1.799 4.094-.248.62-.62.682-.992.186-.93-1.24-1.55-3.04-.31-6.824C27.565 29.736 39.723 6.785 44.003.83c.559-.806 1.055-.806 1.551.062.931 1.737.931 4.528-1.612 9.18-.931 1.738-3.598 6.018-5.522 9.43 1.8-1.613 3.723-2.605 5.335-2.605 5.273 0 5.521 7.32 2.11 14.888-2.916 6.513-6.762 10.049-10.36 10.049"/>
        <path fill="#E80989" d="M71.61 17.954c-.807.868-2.544.682-3.475-.93-.992-1.676-.682-3.536.31-4.591.993-1.055 2.792-.31 3.598 1.365.807 1.612.372 3.287-.434 4.156"/>
        <path fill="#FFF" d="M52.026 42.595c-4.715 0-5.893-3.97-4.156-9.057 1.55-4.528 5.645-11.848 7.94-15.074.558-.744.992-.93 1.489-.372.93.993 1.426 3.66-.062 6.762-1.303 2.73-3.909 6.947-5.211 10.05-1.489 3.597-1.985 7.815 0 7.691M61.703 17.433c-.806.869-2.543.683-3.474-.93-.992-1.675-.682-3.536.31-4.59.993-1.055 2.792-.31 3.598 1.364.807 1.613.372 3.288-.434 4.156M61.284 42.602c-4.715 0-5.894-3.97-4.157-9.057 1.551-4.529 5.645-11.849 7.94-15.074.559-.745.993-.93 1.49-.372.93.992 1.426 3.66-.063 6.761-1.302 2.73-3.908 6.948-5.21 10.05-1.49 3.597-1.985 7.816 0 7.692M82.932 22.515c-.31-1.985-1.551-1.613-1.861.186-.31 1.675.372 3.474 1.364 4.405.497-1.924.683-3.474.497-4.591m-2.11 5.521c-1.302-.993-2.79-3.164-2.853-5.46-1.675 1.428-3.474 3.475-4.777 5.832-2.605 4.715-3.535 10.422-1.922 11.786 1.736 1.427 5.52-.744 8.56-6.451.93-1.737 1.675-3.474 2.171-4.963a4.725 4.725 0 0 1-1.178-.744m5.273 1.55c-1.303 5.273-5.211 11.54-9.802 13.09-2.233.744-5.335.496-7.816-2.73-2.73-3.598-1.799-8.995.993-13.957 2.357-4.218 6.14-7.816 9.863-8.064 1.923-.125 2.977.434 4.218 2.109 1.427 1.923 3.288 2.357 2.916 6.823-.062.496-.062.93-.124 1.427.372 0 .744-.124 1.24-.124.435 0 .435.31.186.62-.434.497-1.054.745-1.674.807"/>
    </g>
</svg>
