<svg xmlns="http://www.w3.org/2000/svg" width="54" height="54" viewBox="0 0 54 54">
    <g fill="none" fill-rule="evenodd" stroke="#EC008C" stroke-linecap="round" stroke-linejoin="round" stroke-width="3">
        <path d="M35.594 29.981l6.75 6.75-4.111 4.111c-3.51 3.51-11.98.732-18.919-6.206-6.938-6.938-9.717-15.408-6.207-18.919l4.112-4.111 6.749 6.749"/>
        <path d="M35.333 30.447l-4.887 4.887-11.78-11.78 4.887-4.887"/>
        <path d="M41.744 36.102c2.45 0 3.996 1.345 4.883 3.629.207.532.336 1.094.383 1.663.062.73-.526 1.229-.983 1.768a25.17 25.17 0 0 1-2.745 2.763 25.068 25.068 0 0 1-14.876 6.018C18.598 52.5 9.163 47.095 4.69 38.345.204 29.565 1.412 18.652 7.694 11.06c6.27-7.58 16.686-10.82 26.153-8.116 9.29 2.654 16.396 10.723 17.838 20.28.188 1.244.28 2.502.28 3.76"/>
    </g>
</svg>
