<svg xmlns="http://www.w3.org/2000/svg" width="30" height="30" viewBox="0 0 30 30">
    <g fill="none" fill-rule="evenodd" stroke="#EC008C" stroke-linecap="round" stroke-linejoin="round" stroke-width="3">
        <path d="M10.36 13.39L6.713 9.746l2.22-2.22c1.896-1.896 6.47-.396 10.216 3.35 3.747 3.747 5.248 8.321 3.352 10.217l-2.22 2.22-3.645-3.645"/>
        <path d="M10.5 13.138l2.639-2.639 6.361 6.362-2.638 2.639"/>
        <path d="M7.038 10.085c-1.323 0-2.158-.726-2.636-1.96a3.21 3.21 0 0 1-.208-.898c-.033-.394.285-.663.532-.954A13.537 13.537 0 0 1 14.24 1.53c5.296-.301 10.391 2.618 12.806 7.343 2.423 4.741 1.77 10.634-1.622 14.734-3.386 4.094-9.01 5.843-14.122 4.383-5.017-1.433-8.854-5.79-9.633-10.951a13.588 13.588 0 0 1-.151-2.031"/>
    </g>
</svg>
