<svg xmlns="http://www.w3.org/2000/svg" xmlns:xlink="http://www.w3.org/1999/xlink" width="250" height="71" viewBox="0 0 250 71">
    <defs>
        <path id="a" d="M0 44.535V.085h44.45v44.45H0z"/>
    </defs>
    <g fill="none" fill-rule="evenodd">
        <path fill="#E80989" d="M57.802 60.587h40.071v-40.07h-40.07z"/>
        <path fill="#28AAE1" d="M31.469 70.959l52.666-30.407L31.47 10.145z"/>
        <g transform="translate(0 18.242)">
            <mask id="b" fill="#fff">
                <use xlink:href="#a"/>
            </mask>
            <path fill="#FBED1F" d="M44.45 22.31c0 12.274-9.95 22.225-22.225 22.225C9.95 44.535 0 34.585 0 22.31 0 10.035 9.95.085 22.225.085c12.274 0 22.225 9.95 22.225 22.225" mask="url(#b)"/>
        </g>
        <path fill="#FBED1F" d="M167.44 23.862c-1.173 1.263-3.7.993-5.053-1.353-1.444-2.437-.993-5.143.45-6.677 1.444-1.534 4.061-.451 5.234 1.985 1.173 2.346.541 4.782-.631 6.045"/>
        <path fill="#28AAE1" d="M152.101 23.862c.993-.993 1.535-.812 1.715.36.27 1.896-.812 4.242-3.7 7.851-4.511 5.684-12.722 14.347-21.384 28.062-.451.722-.902 1.353-1.805.902-3.519-1.715-4.782-3.52-4.511-8.301.36-6.316 2.797-19.22 5.865-28.603.36-.993 1.082-1.354 1.804-.722 2.978 2.526 3.429 5.865 2.166 11.369-1.624 6.948-3.429 12-4.692 21.836 6.406-10.557 18.407-26.438 24.542-32.754M153.364 61.583c-6.858 0-8.572-5.775-6.046-13.174 2.256-6.587 8.211-17.234 11.55-21.926.812-1.083 1.443-1.353 2.165-.541 1.354 1.444 2.076 5.324-.09 9.835-1.895 3.97-5.684 10.106-7.58 14.617-2.165 5.234-2.887 11.37 0 11.189M177.704 31.884c-4.06 4.24-8.391 11.73-11.73 18.678.18 2.616 1.353 5.504 3.79 6.045 3.158.722 7.308-1.985 12.542-12.452 5.143-10.196 4.06-15.7 1.985-15.88-1.895-.18-3.88.812-6.587 3.61m-4.06 28.963c-4.783 0-7.85-2.436-9.475-6.406-.812 1.894-1.804 4.06-2.616 5.955-.361.902-.903.992-1.444.27-1.353-1.804-2.256-4.42-.451-9.925 2.436-7.489 20.121-40.874 26.347-49.536.812-1.173 1.534-1.173 2.256.09 1.354 2.527 1.354 6.587-2.346 13.354-1.354 2.527-5.233 8.753-8.03 13.715 2.616-2.346 5.413-3.79 7.76-3.79 7.669 0 8.03 10.648 3.067 21.656-4.24 9.474-9.835 14.617-15.068 14.617"/>
        <path fill="#E80989" d="M226.159 26.115c-1.173 1.263-3.7.992-5.053-1.354-1.444-2.436-.993-5.143.45-6.677 1.445-1.534 4.061-.451 5.234 1.985 1.173 2.346.542 4.782-.631 6.046"/>
        <path fill="#28AAE1" d="M197.674 61.957c-6.858 0-8.572-5.775-6.045-13.174 2.255-6.587 8.21-17.234 11.55-21.926.811-1.083 1.443-1.353 2.164-.541 1.354 1.443 2.076 5.323-.09 9.835-1.895 3.97-5.684 10.105-7.579 14.617-2.166 5.233-2.887 11.37 0 11.189M211.75 25.358c-1.173 1.263-3.7.992-5.053-1.354-1.444-2.436-.993-5.143.451-6.677 1.444-1.534 4.06-.45 5.233 1.985 1.173 2.346.542 4.782-.631 6.046M211.14 61.966c-6.858 0-8.572-5.775-6.046-13.174 2.256-6.587 8.211-17.234 11.55-21.926.812-1.083 1.443-1.353 2.165-.54 1.354 1.443 2.075 5.323-.09 9.834-1.895 3.97-5.684 10.106-7.58 14.618-2.165 5.233-2.887 11.368 0 11.188M242.628 32.75c-.451-2.888-2.256-2.347-2.707.27-.451 2.436.542 5.053 1.985 6.406.722-2.797.993-5.053.722-6.677m-3.068 8.03c-1.895-1.443-4.06-4.601-4.15-7.94-2.437 2.075-5.053 5.053-6.948 8.482-3.79 6.857-5.143 15.159-2.797 17.144 2.526 2.075 8.03-1.083 12.452-9.384 1.353-2.527 2.436-5.053 3.158-7.219-.632-.27-1.173-.631-1.715-1.082m7.67 2.255c-1.895 7.67-7.58 16.783-14.257 19.039-3.248 1.083-7.76.722-11.368-3.97-3.97-5.234-2.617-13.084 1.443-20.302 3.429-6.136 8.933-11.37 14.347-11.73 2.797-.18 4.33.631 6.135 3.068 2.076 2.797 4.783 3.429 4.241 9.925-.09.722-.09 1.354-.18 2.075.541 0 1.082-.18 1.804-.18.632 0 .632.451.271.902-.632.722-1.534 1.083-2.436 1.173"/>
    </g>
</svg>
