<svg xmlns="http://www.w3.org/2000/svg" width="22" height="22" viewBox="0 0 22 22">
    <g fill="none" fill-rule="evenodd" transform="translate(-1 -1)">
        <rect width="24" height="24" rx="2"/>
        <path fill="#00ADED" fill-rule="nonzero" d="M22.861 12.673l.016-.039A1.68 1.68 0 0 0 23 12l-.004.119.004-.095V12a1.727 1.727 0 0 0-.075-.5l-.012-.037a1.588 1.588 0 0 0-.052-.136l-.008-.018a1.689 1.689 0 0 0-.349-.506l.088.095a1.702 1.702 0 0 0-.07-.076l-.018-.019-9.307-9.307a1.692 1.692 0 0 0-2.394 2.393l6.419 6.418H2.692c-.885 0-1.612.68-1.686 1.547L1 12c0 .935.758 1.692 1.692 1.692h14.531l-6.42 6.42a1.693 1.693 0 0 0-.11 2.272l.11.12c.661.661 1.733.661 2.394 0l9.307-9.307a1.726 1.726 0 0 0 .288-.384l.061-.122.008-.018z"/>
    </g>
</svg>
