<?xml version="1.0" encoding="UTF-8"?>
<svg width="34px" height="34px" viewBox="0 0 34 34" version="1.1" xmlns="http://www.w3.org/2000/svg" xmlns:xlink="http://www.w3.org/1999/xlink">
    <!-- Generator: Sketch 49.2 (51160) - http://www.bohemiancoding.com/sketch -->
    <title>Combined Shape</title>
    <desc>Created with Sketch.</desc>
    <defs></defs>
    <g id="Atoms-and-Molecules" stroke="none" stroke-width="1" fill="none" fill-rule="evenodd">
        <g transform="translate(-646.000000, -16.000000)" fill="#EC008C" id="navigation/search">
            <g transform="translate(646.000000, 16.000000)">
                <g id="search" transform="translate(17.000000, 17.000000) scale(-1, 1) translate(-17.000000, -17.000000) ">
                    <path d="M23.2642809,21.1427423 L33.0608784,30.9393398 C33.6466648,31.5251263 33.6466648,32.4748737 33.0608784,33.0606602 C32.4750919,33.6464466 31.5253444,33.6464466 30.939558,33.0606602 L21.1429605,23.2640627 C18.9720268,24.9774583 16.23055,26 13.2502182,26 C6.20815001,26 0.500218182,20.291877 0.500218182,13.25 C0.500218182,6.208123 6.20815001,0.5 13.2502182,0.5 C20.291918,0.5 26.0002182,6.20830015 26.0002182,13.25 C26.0002182,16.2303319 24.9776765,18.9718086 23.2642809,21.1427423 Z M20.1558284,20.1330055 C21.913585,18.3695122 23.0002182,15.9366738 23.0002182,13.25 C23.0002182,7.8651544 18.6350638,3.5 13.2502182,3.5 C7.86502676,3.5 3.50021818,7.86495476 3.50021818,13.25 C3.50021818,18.6350452 7.86502676,23 13.2502182,23 C15.9368919,23 18.3697304,21.9133668 20.1332237,20.1556102 C20.1369472,20.1518082 20.140695,20.148021 20.1444671,20.1442489 C20.1482392,20.1404768 20.1520264,20.136729 20.1558284,20.1330055 Z" id="Combined-Shape"></path>
                </g>
            </g>
        </g>
    </g>
</svg>