<svg xmlns="http://www.w3.org/2000/svg" width="30" height="30" viewBox="0 0 30 30">
    <g fill="none" fill-rule="evenodd" stroke="#ffffff" stroke-linecap="round" stroke-linejoin="round" stroke-width="3">
        <path d="M19.64 16.61l3.646 3.644-2.22 2.22c-1.896 1.896-6.47.396-10.216-3.35-3.747-3.747-5.248-8.321-3.352-10.217l2.22-2.22 3.645 3.645"/>
        <path d="M19.5 16.862L16.861 19.5 10.5 13.139l2.638-2.639"/>
        <path d="M22.962 19.915c1.323 0 2.158.726 2.636 1.96.112.287.182.59.208.898.033.394-.285.663-.532.954a13.537 13.537 0 0 1-9.515 4.742c-5.296.301-10.391-2.618-12.806-7.343C.53 16.385 1.183 10.492 4.575 6.392 7.96 2.298 13.585.549 18.697 2.009c5.017 1.433 8.854 5.79 9.633 10.951.101.672.151 1.352.151 2.031"/>
    </g>
</svg>
