<svg xmlns="http://www.w3.org/2000/svg" width="33" height="33" viewBox="0 0 33 33">
    <g fill="none" fill-rule="evenodd" stroke="#EC008C" stroke-linecap="round" stroke-linejoin="round" stroke-width="3">
        <path d="M21.657 18.289l4.05 4.05-2.467 2.466c-2.107 2.107-7.189.44-11.351-3.723-4.163-4.163-5.831-9.245-3.725-11.352l2.467-2.467 4.05 4.05"/>
        <path d="M21.5 18.568l-2.932 2.933-7.068-7.069 2.932-2.932"/>
        <path d="M25.346 21.961c1.47 0 2.398.807 2.93 2.177.124.32.202.657.23.999.037.438-.316.737-.59 1.06a15.04 15.04 0 0 1-10.573 5.269c-5.884.334-11.545-2.909-14.229-8.159C.422 18.04 1.147 11.491 4.916 6.935 8.68 2.387 14.928.443 20.608 2.065c5.575 1.593 9.838 6.435 10.703 12.169.113.746.168 1.501.168 2.256"/>
    </g>
</svg>
